PathFileType	4	(X/Y/Z)	s07c0103.trc
DataRate	CameraRate	NumFrames	NumMarkers	Units	OrigDataRate	OrigDataStartFrame	OrigNumFrames
200	200	5	47	mm	200	1500	2000
Frame#	Time	racr			lacr			c7			jug			rlel			rdr			llel			ldr			s2			lic			ric			lasi			rasi			rpsi			lpsi			rgt			lgt			rth1			rth2			rth3			rth4			rlfc			rmfc			rsh1			rsh2			rsh3			rsh4			rcal			rtoe			rmt5			lth1			lth2			lth4			lth3			llfc			lmfc			lsh1			lsh2			lsh3			lsh4			llmal			lcal			ltoe			lmt5			SBIKE			LBIKE			RBIKE			
		X1	Y1	Z1	X2	Y2	Z2	X3	Y3	Z3	X4	Y4	Z4	X5	Y5	Z5	X6	Y6	Z6	X7	Y7	Z7	X8	Y8	Z8	X9	Y9	Z9	X10	Y10	Z10	X11	Y11	Z11	X12	Y12	Z12	X13	Y13	Z13	X14	Y14	Z14	X15	Y15	Z15	X16	Y16	Z16	X17	Y17	Z17	X18	Y18	Z18	X19	Y19	Z19	X20	Y20	Z20	X21	Y21	Z21	X22	Y22	Z22	X23	Y23	Z23	X24	Y24	Z24	X25	Y25	Z25	X26	Y26	Z26	X27	Y27	Z27	X28	Y28	Z28	X29	Y29	Z29	X30	Y30	Z30	X31	Y31	Z31	X32	Y32	Z32	X33	Y33	Z33	X34	Y34	Z34	X35	Y35	Z35	X36	Y36	Z36	X37	Y37	Z37	X38	Y38	Z38	X39	Y39	Z39	X40	Y40	Z40	X41	Y41	Z41	X42	Y42	Z42	X43	Y43	Z43	X44	Y44	Z44	X45	Y45	Z45	X46	Y46	Z46	X47	Y47	Z47	
1500	7.5000	520.606998	1366.580568	-121.322527	520.199748	1375.089107	-368.153855	481.317640	1413.882356	-245.286144	438.354952	1269.242676	-262.494141	519.921423	1076.614089	76.733518	714.951028	914.906762	-65.113640	514.650149	1084.147779	-564.540203	716.417200	912.661485	-434.442510	-120.716437	1198.995136	-227.543932	22.435154	1271.932123	-380.622076	75.069204	1218.787852	-99.442950	48.533430	1193.837378	-368.932768	87.600884	1173.182827	-122.178308	-83.209464	1232.478647	-177.146270	-91.592943	1256.883608	-281.972954	22.323140	1095.556534	-61.637155	-31.989034	1115.670928	-420.854667	154.514867	1007.124547	-69.554557	230.108791	964.603200	-84.025982	278.502756	894.221830	-84.773912	249.899436	988.847318	-104.823133	348.550500	783.079426	-118.902259	324.337790	763.210812	-223.223111	247.493106	685.055209	-89.434840	204.840131	607.336495	-98.014693	131.245648	561.553153	-89.652104	218.503153	594.645486	-134.770449	-34.458669	492.763810	-111.803977	114.114380	242.884371	-125.734893	44.027900	288.829502	-55.993243	61.561316	1021.958325	-424.922682	144.027346	989.817394	-425.229853	165.472733	1018.937262	-420.048902	200.195830	921.542402	-417.513817	332.044000	804.592586	-382.413838	323.427195	781.834000	-288.907339	293.904559	660.982797	-407.016600	291.130419	577.793852	-387.830017	256.201273	498.533790	-395.046758	289.682212	580.620353	-344.809429	203.110410	367.734597	-401.280683	140.350470	310.445116	-368.947360	423.783374	370.221037	-364.463233	353.908873	323.701289	-429.476299	-261.912453	965.350810	-237.152793	-82.950226	79.000535	-436.925963	-82.921659	79.060996	-39.365428	
1501	7.5050	518.368611	1370.536483	-119.820710	519.840328	1377.388068	-366.473610	479.936213	1417.058742	-243.983525	437.114282	1272.311852	-260.706064	521.036379	1079.294520	76.321156	715.227898	915.128958	-65.355087	516.180775	1086.529254	-563.750264	716.677327	912.730311	-434.294402	-120.396100	1198.624151	-230.226898	23.397450	1271.083536	-383.123562	73.824169	1220.113040	-100.621632	49.889030	1192.958897	-370.681054	87.233635	1174.681644	-123.640587	-83.670534	1232.392249	-179.649488	-91.229506	1256.161555	-285.081306	22.997330	1097.734011	-62.340280	-30.630669	1113.963775	-422.320766	157.312644	1011.873060	-69.105683	234.006262	971.164445	-85.176099	284.345818	902.442085	-84.494086	252.691773	995.919153	-105.518869	356.396255	792.485140	-118.919761	342.019646	772.881977	-218.296257	255.252382	694.402468	-89.582112	212.337885	616.932292	-97.998805	138.627217	570.980403	-89.401070	226.265375	603.749411	-134.490370	-25.348267	505.108077	-111.973355	112.716759	249.294908	-125.974658	44.665244	298.070121	-56.082202	61.019025	1018.734809	-426.389405	142.554713	984.410084	-426.359906	164.728915	1012.892997	-421.002677	196.829574	914.636189	-418.349560	325.676963	794.886537	-382.745348	316.705790	772.295320	-289.607366	288.910273	650.934627	-407.606878	287.229495	567.178045	-388.321081	245.855807	486.848614	-397.201594	285.374547	570.070231	-345.857034	202.206464	355.993051	-401.098940	139.707342	298.665601	-369.104485	423.141660	359.496408	-364.521661	353.370094	312.907908	-429.371340	-261.996319	965.238029	-237.045010	-82.939690	79.006965	-436.944912	-82.900436	79.105919	-39.382583	
1502	7.5100	515.990952	1374.676335	-118.032930	519.585877	1379.703958	-364.684629	478.537115	1420.226042	-242.686307	436.071521	1275.292687	-258.763864	521.525135	1081.398533	75.206878	715.469763	915.344549	-65.660590	517.698500	1088.917267	-562.840523	716.909788	912.802989	-434.114157	-119.954393	1198.320027	-232.963432	24.385128	1270.464877	-385.555155	72.449080	1221.671137	-101.662546	51.292057	1192.368130	-372.267007	86.732894	1176.379852	-124.934741	-84.045225	1232.544099	-182.381816	-90.722494	1255.544697	-288.130070	23.412963	1099.978434	-63.150832	-29.212201	1112.553561	-423.742622	159.338630	1016.468751	-68.693439	237.219245	978.082186	-85.450041	289.795715	910.934835	-84.505216	254.920585	1003.149640	-106.438083	363.393691	802.131367	-119.259438	344.613473	782.958047	-222.535795	262.985758	703.863076	-89.684798	220.162971	626.289026	-97.919003	146.511378	580.293650	-89.149049	234.214411	612.888207	-134.252006	-15.539022	517.058378	-112.134713	110.534681	254.964336	-127.276846	46.016606	307.314920	-56.127421	60.521237	1015.872031	-427.835078	141.155320	979.463104	-427.564797	164.042087	1007.264798	-421.894912	193.519071	908.158782	-419.188088	319.174297	785.023155	-382.680480	307.119681	763.261598	-290.374891	283.400302	641.234388	-408.557425	282.707157	557.482417	-388.723173	242.707598	476.388672	-397.497304	281.241222	560.135029	-346.429338	200.761985	344.861239	-401.287630	138.596805	287.471563	-369.073899	421.867717	348.878358	-364.415982	352.179751	302.062584	-429.169544	-261.930442	965.332792	-237.467273	-82.956610	79.007279	-436.974547	-82.905252	79.147540	-39.388586	
1503	7.5150	513.587516	1378.707084	-116.204795	519.312910	1382.054085	-362.952325	477.152435	1423.413685	-241.368421	434.876677	1278.354275	-256.877564	522.327589	1083.748913	74.358708	715.642248	915.627888	-66.035100	519.155816	1091.315218	-561.837816	717.100572	912.891668	-433.889148	-119.419598	1198.184166	-235.682260	25.381706	1270.071913	-387.837792	70.956846	1223.375695	-102.542922	52.942491	1192.072686	-373.849330	86.139051	1178.250775	-126.205290	-84.341280	1232.857172	-185.054695	-90.109394	1255.074073	-291.091766	23.324637	1102.377021	-64.087799	-27.607092	1111.406248	-425.105831	160.940141	1021.923274	-68.907120	239.760639	984.966797	-85.898303	294.215520	919.564369	-84.559876	256.669775	1010.355765	-107.339340	370.196965	812.026884	-119.903853	351.868706	792.459158	-222.810264	270.724848	713.292882	-89.766623	228.167184	635.478237	-97.762140	154.630314	589.261511	-88.895675	242.153633	622.201005	-134.165081	-5.368482	528.759223	-112.093092	110.240921	261.772261	-127.304735	47.870531	316.669994	-56.315162	60.084590	1013.248372	-429.213680	139.681950	974.921456	-428.751254	163.279987	1001.892989	-422.751552	190.173222	901.897228	-420.236330	312.338032	775.836544	-383.397472	301.096437	754.399429	-291.244394	277.288135	631.583310	-409.304643	277.995255	547.549418	-389.771044	238.783478	466.255281	-398.023388	278.396018	550.652392	-346.539194	198.834074	334.160121	-401.347790	136.783592	276.878793	-369.057845	420.302392	338.458382	-364.490496	350.473880	291.294753	-429.060778	-261.877268	965.420555	-237.875154	-82.925324	79.030326	-436.972331	-82.894991	79.247742	-39.439680	
1504	7.5200	511.158526	1382.726360	-114.276130	519.102741	1384.321167	-361.161255	475.756638	1426.648493	-240.045894	433.570078	1281.495122	-254.987751	522.727958	1085.906820	73.225573	715.802835	915.931994	-66.420511	520.550872	1093.765256	-560.688680	717.343755	912.984386	-433.644262	-118.883369	1198.238584	-238.391459	26.596908	1269.936660	-390.168423	69.427317	1225.302238	-103.379543	54.555097	1191.914889	-375.160952	85.438133	1180.220238	-127.297525	-84.583542	1233.358889	-187.722919	-89.283027	1254.745846	-294.059494	23.364574	1104.787717	-65.272905	-25.967365	1110.324598	-426.382440	162.554782	1026.977364	-69.789224	241.927735	992.089132	-86.616639	297.990089	927.974986	-84.687971	258.027601	1017.697712	-107.962998	377.140767	822.361261	-119.468818	358.596684	802.286404	-222.743767	278.396686	722.632826	-89.775121	236.176086	644.814927	-97.666107	162.843124	598.461685	-88.666043	250.123626	631.863884	-133.772764	4.943946	539.988458	-112.100766	110.671346	268.780442	-127.398439	50.324680	326.012828	-56.412374	59.517493	1010.670307	-431.024476	138.196131	970.007205	-429.616402	162.463437	996.531498	-423.582755	186.619787	895.826791	-421.025976	305.285138	766.733840	-384.047184	293.686674	745.348974	-292.094345	270.760013	622.249354	-410.197720	272.594805	538.353975	-390.235532	234.477340	456.498627	-398.718971	273.762577	540.678267	-347.792597	196.464315	323.793736	-401.371965	134.303305	266.718309	-369.006857	418.079260	327.397951	-363.936664	348.096515	280.860551	-429.070004	-261.794706	965.470399	-238.209442	-82.921663	79.042160	-436.989508	-82.900045	79.263805	-39.470764	
